<svg xmlns="http://www.w3.org/2000/svg" width="680" height="180" version="1.0" viewBox="0 0 510 135"><defs><clipPath id="a"><path d="M27.559 13.402h47.644v55.09H27.56Zm0 0"/></clipPath><clipPath id="b"><path d="M27.559 27.133v27.504l23.824 13.77 23.82-13.77V27.133l-23.82-13.73Zm0 0"/></clipPath><clipPath id="c"><path d="M53.242 58.035h47.645v55.09H53.242Zm0 0"/></clipPath><clipPath id="d"><path d="M53.242 71.766V99.27l23.824 13.77 23.82-13.77V71.766l-23.82-13.73Zm0 0"/></clipPath><clipPath id="e"><path d="M1.875 58.035H49.52v55.09H1.875Zm0 0"/></clipPath><clipPath id="f"><path d="M1.875 71.766V99.27l23.824 13.77 23.82-13.77V71.766L25.7 58.036Zm0 0"/></clipPath></defs><g clip-path="url(#a)"><g clip-path="url(#b)"><path fill="#f1c928" d="M27.559 13.402h47.644v55.09H27.56Zm0 0"/></g></g><g clip-path="url(#c)"><g clip-path="url(#d)"><path fill="#f1c928" d="M53.242 58.035h47.645v55.09H53.242Zm0 0"/></g></g><g clip-path="url(#e)"><g clip-path="url(#f)"><path fill="#f1c928" d="M1.875 58.035H49.52v55.09H1.875Zm0 0"/></g></g></svg>